<?xml version="1.0" standalone="no"?>
<!DOCTYPE svg PUBLIC "-//W3C//DTD SVG 20010904//EN"
 "http://www.w3.org/TR/2001/REC-SVG-20010904/DTD/svg10.dtd">
<svg version="1.0" xmlns="http://www.w3.org/2000/svg"
 width="210.000000pt" height="210.000000pt" viewBox="0 0 210.000000 210.000000"
 preserveAspectRatio="xMidYMid meet">
<metadata>
Created by potrace 1.11, written by Peter Selinger 2001-2013
</metadata>
<g transform="translate(0.000000,210.000000) scale(0.100000,-0.100000)"
fill="#000000" stroke="none">
<path d="M0 1050 l0 -1050 1050 0 1050 0 0 1050 0 1050 -1050 0 -1050 0 0
-1050z m861 833 c32 -36 32 -36 2 -10 -17 16 -33 28 -35 26 -1 -1 -12 2 -23 9
-20 11 -20 11 1 12 11 0 36 -17 55 -37z m-98 20 c-7 -2 -21 -2 -30 0 -10 3 -4
5 12 5 17 0 24 -2 18 -5z m-70 -10 c-7 -2 -19 -2 -25 0 -7 3 -2 5 12 5 14 0
19 -2 13 -5z m550 -73 c-3 -11 -9 -20 -14 -20 -4 0 -9 -12 -11 -27 -3 -20 -5
-14 -8 20 -5 43 -3 47 16 47 17 0 21 -5 17 -20z m-239 -67 c10 4 13 1 10 -8
-4 -9 15 -27 50 -51 31 -20 56 -39 56 -41 0 -5 -3 -3 -75 42 -33 21 -65 32
-95 34 -52 2 -68 11 -22 11 39 0 40 14 5 54 -17 19 -12 16 14 -8 25 -24 47
-36 57 -33z m561 -9 c15 -6 92 -144 80 -144 -2 0 -18 27 -35 60 -17 33 -33 60
-37 60 -3 0 -27 -22 -52 -48 -42 -44 -37 -37 24 36 16 20 17 25 5 32 -17 11
-9 13 15 4z m-1012 -64 c7 -9 4 -8 -9 3 -11 9 -24 14 -27 10 -4 -3 -7 0 -7 8
0 8 6 21 13 28 10 10 13 8 15 -11 2 -13 9 -30 15 -38z m240 10 c5 -30 4 -32
-5 -12 -15 30 -23 28 -38 -8 -7 -17 -17 -33 -22 -36 -5 -3 0 12 11 35 26 50
26 51 -1 52 -18 1 -17 3 7 8 37 9 41 6 48 -39z m351 42 c-7 -4 -14 -16 -17
-27 -4 -15 -5 -14 -6 8 -1 20 4 27 17 27 11 0 13 -3 6 -8z m-286 -9 c-10 -2
-28 -2 -40 0 -13 2 -5 4 17 4 22 1 32 -1 23 -4z m451 -68 c0 -5 -8 6 -19 25
-11 19 -19 40 -19 45 0 6 8 -6 19 -25 11 -19 19 -39 19 -45z m-102 8 c-3 -10
-5 -4 -5 12 0 17 2 24 5 18 2 -7 2 -21 0 -30z m-544 10 c4 -3 2 -13 -5 -20 -9
-11 -9 -19 1 -35 10 -16 10 -19 0 -16 -14 5 -31 56 -23 70 6 10 18 10 27 1z
m244 -23 l2 -25 -8 25 -8 25 -11 -25 c-8 -20 -11 -21 -11 -6 -1 12 -6 16 -16
12 -8 -3 -15 -2 -15 3 0 15 14 22 40 19 19 -2 26 -9 27 -28z m50 8 c-3 -8 -6
-5 -6 6 -1 11 2 17 5 13 3 -3 4 -12 1 -19z m313 -13 c0 -18 -5 -25 -20 -25
-15 0 -20 7 -20 25 0 18 5 25 20 25 15 0 20 -7 20 -25z m-230 -25 c0 -23 -4
-30 -20 -30 -24 0 -27 28 -4 37 13 5 13 7 2 14 -10 7 -9 9 5 9 12 0 17 -8 17
-30z m160 -7 c0 -7 23 -24 50 -38 28 -14 50 -28 50 -30 0 -3 -19 4 -42 16 -49
25 -74 29 -103 16 -17 -7 -16 -5 3 10 15 12 19 22 12 29 -6 6 -3 10 10 10 11
0 20 -6 20 -13z m-412 -36 c2 -18 -2 -29 -13 -33 -24 -9 -37 9 -29 40 9 35 38
31 42 -7z m682 30 c0 -2 -12 -14 -27 -28 l-28 -24 24 28 c23 25 31 32 31 24z
m-111 -62 c0 -5 -6 1 -14 15 -8 14 -14 30 -14 35 0 6 6 -1 14 -15 8 -14 14
-29 14 -35z m331 -15 c11 -22 18 -40 15 -40 -2 0 -14 18 -25 40 -11 22 -18 40
-15 40 2 0 14 -18 25 -40z m-1006 -5 c3 -8 13 -15 23 -16 16 0 16 -1 -1 -8
-24 -9 -65 9 -59 26 7 18 30 16 37 -2z m709 -9 c-3 -4 1 -12 8 -17 10 -6 11
-9 2 -9 -7 0 -13 -8 -13 -17 -1 -17 -1 -17 -11 0 -9 15 -13 16 -27 5 -15 -11
-15 -11 -4 3 7 9 10 23 6 32 -4 11 1 15 19 13 14 0 23 -5 20 -10z m-603 -36
c8 -5 11 -10 5 -10 -5 0 -17 5 -25 10 -8 5 -10 10 -5 10 6 0 17 -5 25 -10z
m-317 -34 c15 -22 14 -23 -1 -22 -20 1 -36 22 -27 36 9 14 11 13 28 -14z m448
-3 c9 -24 -8 -24 -70 4 l-43 19 52 -1 c43 -2 55 -6 61 -22z m399 13 c0 -2 -33
-32 -72 -66 l-73 -62 70 66 c70 65 75 70 75 62z m287 -22 c-3 -3 -12 -4 -19
-1 -8 3 -5 6 6 6 11 1 17 -2 13 -5z m78 -24 c13 -6 15 -9 5 -9 -8 0 -22 4 -30
9 -18 12 -2 12 25 0z m78 -31 c-5 -4 -19 -10 -33 -14 -19 -5 -22 -4 -10 4 13
10 13 12 0 21 -12 9 -12 10 5 8 13 -2 19 2 17 12 -1 10 2 9 13 -4 8 -11 12
-23 8 -27z m-418 -25 c0 -32 -27 -42 -33 -11 -2 10 3 17 12 17 9 0 16 4 16 10
0 5 -7 6 -17 3 -11 -4 -14 -3 -9 6 13 20 31 6 31 -25z m-212 -31 c38 -4 61
-23 29 -23 -12 0 -22 -4 -22 -9 0 -5 -9 -7 -20 -4 -11 3 -17 10 -14 15 3 5 -2
16 -12 24 -11 9 -13 12 -5 8 8 -4 28 -9 44 -11z m294 -15 c-3 -8 -6 -5 -6 6
-1 11 2 17 5 13 3 -3 4 -12 1 -19z m-894 -93 c19 -51 39 -89 45 -87 7 1 12 -4
12 -11 0 -17 265 -164 305 -169 23 -3 26 -6 13 -12 -11 -5 -62 17 -168 75 -83
45 -159 89 -169 98 -16 14 -82 186 -80 208 1 10 4 4 42 -102z m227 59 c0 -2
-13 2 -30 11 -16 9 -30 18 -30 21 0 2 14 -2 30 -11 17 -9 30 -18 30 -21z m488
19 c-10 -2 -28 -2 -40 0 -13 2 -5 4 17 4 22 1 32 -1 23 -4z m-414 -33 c8 0 22
-14 44 -42 12 -15 10 -16 -22 -7 -25 7 -42 6 -57 -1 -11 -7 -23 -9 -27 -6 -3
3 -1 6 4 6 5 0 15 4 23 9 13 8 13 12 0 27 -12 15 -12 16 0 9 11 -6 13 -3 8 16
-5 22 -5 22 7 7 7 -10 16 -18 20 -18z m479 23 c-7 -2 -21 -2 -30 0 -10 3 -4 5
12 5 17 0 24 -2 18 -5z m145 -7 c-22 -15 -97 -52 -80 -40 12 9 22 20 22 25 0
4 -10 10 -22 12 -13 2 -8 3 9 1 18 -1 35 1 38 6 3 5 12 7 21 3 8 -3 14 -6 12
-7z m-551 -32 c-3 -3 -12 -4 -19 -1 -8 3 -5 6 6 6 11 1 17 -2 13 -5z m147 -31
c9 4 13 -4 12 -22 -1 -18 -6 -27 -18 -27 -15 0 -18 9 -17 46 1 25 4 35 6 22 3
-14 10 -22 17 -19z m73 -25 c-2 -13 -4 -3 -4 22 0 25 2 35 4 23 2 -13 2 -33 0
-45z m108 52 c4 -6 -1 -7 -12 -4 -17 5 -17 5 0 -9 23 -19 22 -37 -3 -37 -11 0
-20 5 -20 11 0 5 6 7 13 3 10 -6 10 -4 0 7 -7 7 -13 19 -13 26 0 15 26 18 35
3z m110 -29 c-16 -14 -105 -63 -105 -58 0 5 101 66 110 67 2 0 0 -4 -5 -9z
m-595 -21 c-8 -5 -19 -10 -25 -10 -5 0 -3 5 5 10 8 5 20 10 25 10 6 0 3 -5 -5
-10z m210 -26 c0 -2 -9 0 -20 6 -11 6 -20 13 -20 16 0 2 9 0 20 -6 11 -6 20
-13 20 -16z m-170 -54 c0 -19 -5 -30 -14 -30 -8 0 -17 -6 -19 -12 -3 -7 -6 6
-6 30 -1 36 2 42 19 42 16 0 20 -7 20 -30z m420 25 c0 -2 -10 -9 -22 -15 -22
-11 -22 -10 -4 4 21 17 26 19 26 11z m-67 -43 c-28 -21 -56 -35 -51 -25 3 4 7
15 10 23 3 8 17 15 32 15 24 0 25 -1 9 -13z m-206 -39 c-3 -10 -5 -4 -5 12 0
17 2 24 5 18 2 -7 2 -21 0 -30z"/>
<path d="M760 1110 c0 -11 5 -20 10 -20 6 0 10 9 10 20 0 11 -4 20 -10 20 -5
0 -10 -9 -10 -20z"/>
</g>
</svg>
